<svg width="1200" height="630" viewBox="0 0 1200 630" fill="none" xmlns="http://www.w3.org/2000/svg" role="img" aria-label="Dueno Property">
  <rect width="1200" height="630" fill="#000000"/>
  <g transform="translate(251.5 167.4) scale(4.117647058823529)">
    <path d="M26.3783 66.4638H22.9297V41.938L26.3783 37.7666V66.4638Z" fill="#7B8383"/>
    <path d="M28.3843 66.461H27.4219V32.9258L28.3843 36.1788V66.461Z" fill="#7B8383"/>
    <path d="M29.3477 66.0463H31.6331V44.3564L29.3477 39.9355V66.0463Z" fill="#7B8383"/>
    <path d="M2.23828 0C2.23828 0 21.9282 7.7943 38.4474 29.3319C48.7437 42.7568 48.0512 62.4321 35.9906 69.6802C23.9308 76.9275 9.32275 65.3371 3.02864 60.2543C8.8815 62.4678 31.7631 74.3675 38.0947 55.3603C44.4262 36.3532 24.5988 12.5663 2.23828 0Z" fill="white"/>
    <path d="M14.5609 8.20312C19.3952 27.5638 17.613 51.1425 6.57812 62.7042C6.75736 62.7795 6.93587 62.8549 7.11511 62.9302C7.27275 63.0491 7.43687 63.154 7.60603 63.2511C8.05519 63.3925 8.51156 63.5075 8.97081 63.6147C9.962 63.7701 11.8839 64.3148 12.1927 64.373C12.1949 64.3699 12.197 64.3668 12.1992 64.3637C12.0293 64.2969 11.8587 64.2324 11.6867 64.1734C11.9768 64.272 12.1395 64.3303 12.2028 64.3583C14.9575 60.3772 16.9543 55.6278 17.7584 50.5566C21.6684 25.9027 14.5609 8.20312 14.5609 8.20312Z" fill="white"/>
    <path d="M4.5676 60.7622C5.98564 60.7622 7.1352 59.6445 7.1352 58.2659C7.1352 56.8872 5.98564 55.7695 4.5676 55.7695C3.14955 55.7695 2 56.8872 2 58.2659C2 59.6445 3.14955 60.7622 4.5676 60.7622Z" fill="white"/>
    <path d="M62.0625 42.3175C66.0265 42.3175 69.2513 45.7756 69.2513 50.0543C69.2513 51.9609 68.6143 53.7121 67.5468 55.0648C67.4237 55.2202 67.2798 55.3748 67.1358 55.5302C65.8416 56.9488 64.055 57.8136 62.0834 57.8136H54.8945V42.2949L62.0625 42.3175ZM57.4413 55.0648H62.0625C64.6092 55.0648 66.6837 52.8256 66.6837 50.0768C66.6837 47.328 64.6092 45.0888 62.0625 45.0888H57.4413V55.0648Z" fill="white"/>
    <path d="M84.4753 42.2949V50.0543C84.4753 54.3329 81.2505 57.8136 77.2865 57.8136C73.3224 57.8136 70.0977 54.3329 70.0977 50.0543V42.2949H72.6653V50.0543C72.6653 52.8031 74.7398 55.0422 77.2865 55.0422C79.8332 55.0422 81.9077 52.8031 81.9077 50.0543V42.2949H84.4753Z" fill="white"/>
    <path d="M88.1827 46.485V47.9262H102.046V50.6976H88.1827V53.6235C88.1827 54.3997 88.7787 55.0422 89.4971 55.0422H99.9928V57.8136H89.4978C87.3614 57.8136 85.6367 55.9295 85.6367 53.6235V46.485C85.6367 44.1798 87.3621 42.2949 89.4978 42.2949H99.9935V45.0663H89.4978C88.7787 45.0663 88.1827 45.7088 88.1827 46.485Z" fill="white"/>
    <path d="M115.975 42.3175V57.8361L113.408 55.7081L104.165 48.0156V57.8361H101.598V42.3617L104.165 44.4898L113.408 52.1823V42.2949L115.975 42.3175Z" fill="white"/>
    <path d="M131.116 50.0543C131.116 54.3329 127.891 57.8136 123.927 57.8136C119.963 57.8136 116.738 54.3329 116.738 50.0543C116.738 45.7756 119.963 42.2949 123.927 42.2949C127.891 42.2949 131.116 45.7756 131.116 50.0543ZM128.548 50.0543C128.548 47.3054 126.474 45.0663 123.927 45.0663C121.38 45.0663 119.306 47.3054 119.306 50.0543C119.306 52.8031 121.38 55.0422 123.927 55.0422C126.474 55.0422 128.548 52.8031 128.548 50.0543Z" fill="white"/>
    <path d="M91.6118 62.3096H92.5803C93.1043 62.3096 93.4814 62.3586 93.7119 62.4564C93.9445 62.552 94.1271 62.7086 94.2597 62.926C94.3945 63.1412 94.4619 63.3999 94.4619 63.7021C94.4619 64.0368 94.3738 64.3151 94.1977 64.5368C94.0238 64.7586 93.7869 64.9129 93.4869 64.9999C93.3108 65.0499 92.9901 65.0749 92.5249 65.0749V67.1064H91.6118V62.3096ZM92.5249 64.1847H92.8151C93.0434 64.1847 93.2021 64.1684 93.2912 64.1358C93.3803 64.1031 93.4499 64.0499 93.4999 63.976C93.5521 63.8999 93.5782 63.8086 93.5782 63.7021C93.5782 63.5173 93.5064 63.3825 93.363 63.2977C93.2586 63.2347 93.0651 63.2031 92.7825 63.2031H92.5249V64.1847ZM95.0521 63.5586H95.8152V64.0053C95.8978 63.8292 96.0076 63.6955 96.1445 63.6042C96.2815 63.5129 96.4315 63.4673 96.5945 63.4673C96.7097 63.4673 96.8304 63.4977 96.9565 63.5586L96.6793 64.3249C96.575 64.2727 96.4891 64.2466 96.4217 64.2466C96.2847 64.2466 96.1684 64.3314 96.0728 64.501C95.9793 64.6705 95.9326 65.0032 95.9326 65.4988L95.9358 65.6716V67.1064H95.0521V63.5586ZM99.0663 63.4673C99.4011 63.4673 99.7152 63.551 100.009 63.7184C100.304 63.8858 100.535 64.1129 100.7 64.3999C100.865 64.6868 100.948 64.9966 100.948 65.3292C100.948 65.664 100.864 65.9771 100.697 66.2684C100.532 66.5597 100.305 66.788 100.018 66.9532C99.7315 67.1162 99.4152 67.1978 99.0695 67.1978C98.5608 67.1978 98.1261 67.0173 97.7652 66.6564C97.4065 66.2934 97.2271 65.8532 97.2271 65.3358C97.2271 64.7814 97.4304 64.3195 97.8369 63.9499C98.1934 63.6281 98.6032 63.4673 99.0663 63.4673ZM99.0793 64.3053C98.8032 64.3053 98.5728 64.4021 98.388 64.5955C98.2054 64.7869 98.1141 65.0325 98.1141 65.3325C98.1141 65.6412 98.2043 65.8912 98.3848 66.0825C98.5674 66.2738 98.7978 66.3695 99.0761 66.3695C99.3543 66.3695 99.5859 66.2727 99.7706 66.0793C99.9554 65.8858 100.048 65.6369 100.048 65.3325C100.048 65.0282 99.9565 64.7814 99.7739 64.5923C99.5935 64.401 99.3619 64.3053 99.0793 64.3053ZM102.562 63.5586V63.9499C102.723 63.789 102.897 63.6684 103.084 63.5879C103.271 63.5075 103.471 63.4673 103.684 63.4673C104.147 63.4673 104.54 63.6423 104.864 63.9923C105.188 64.3423 105.35 64.7912 105.35 65.339C105.35 65.8673 105.183 66.3097 104.848 66.6662C104.513 67.0206 104.116 67.1978 103.658 67.1978C103.453 67.1978 103.263 67.1619 103.087 67.0901C102.911 67.0162 102.736 66.8967 102.562 66.7314V68.4043H101.678V63.5586H102.562ZM103.498 64.289C103.217 64.289 102.985 64.3847 102.8 64.576C102.615 64.7673 102.523 65.0173 102.523 65.326C102.523 65.6412 102.615 65.8966 102.8 66.0923C102.985 66.2858 103.217 66.3825 103.498 66.3825C103.77 66.3825 103.998 66.2836 104.183 66.0858C104.37 65.888 104.463 65.6358 104.463 65.3292C104.463 65.0249 104.372 64.776 104.189 64.5825C104.007 64.3868 103.776 64.289 103.498 64.289ZM109.641 65.5901H106.782C106.823 65.8423 106.933 66.0434 107.111 66.1934C107.291 66.3412 107.521 66.4151 107.799 66.4151C108.132 66.4151 108.417 66.2988 108.657 66.0662L109.407 66.4184C109.22 66.6836 108.996 66.8804 108.735 67.0086C108.474 67.1347 108.164 67.1978 107.806 67.1978C107.249 67.1978 106.796 67.0227 106.446 66.6727C106.096 66.3206 105.921 65.8803 105.921 65.3521C105.921 64.8108 106.095 64.3618 106.442 64.0053C106.792 63.6466 107.231 63.4673 107.757 63.4673C108.315 63.4673 108.77 63.6466 109.12 64.0053C109.47 64.3618 109.645 64.8336 109.645 65.4206L109.641 65.5901ZM108.748 64.889C108.689 64.6912 108.573 64.5303 108.399 64.4064C108.227 64.2825 108.027 64.2205 107.799 64.2205C107.551 64.2205 107.334 64.2901 107.147 64.4292C107.029 64.5162 106.921 64.6695 106.821 64.889H108.748ZM110.157 63.5586H110.92V64.0053C111.002 63.8292 111.112 63.6955 111.249 63.6042C111.386 63.5129 111.536 63.4673 111.699 63.4673C111.814 63.4673 111.935 63.4977 112.061 63.5586L111.784 64.3249C111.679 64.2727 111.594 64.2466 111.526 64.2466C111.389 64.2466 111.273 64.3314 111.177 64.501C111.084 64.6705 111.037 65.0032 111.037 65.4988L111.04 65.6716V67.1064H110.157V63.5586ZM112.612 62.2509H113.499V63.5586H114.027V64.3249H113.499V67.1064H112.612V64.3249H112.156V63.5586H112.612V62.2509ZM114.112 63.5586H115.022L115.945 65.7858L116.962 63.5586H117.875L115.651 68.4043H114.732L115.462 66.8423L114.112 63.5586ZM120.35 62.3096H121.263V66.2358H122.594V67.1064H120.35V62.3096ZM123.301 62.2509H124.188V63.5586H124.717V64.3249H124.188V67.1064H123.301V64.3249H122.845V63.5586H123.301V62.2509ZM127.818 62.189H128.705V67.1064H127.818V66.7314C127.644 66.8967 127.469 67.0162 127.293 67.0901C127.119 67.1619 126.93 67.1978 126.725 67.1978C126.267 67.1978 125.87 67.0206 125.535 66.6662C125.2 66.3097 125.033 65.8673 125.033 65.339C125.033 64.7912 125.195 64.3423 125.519 63.9923C125.843 63.6423 126.236 63.4673 126.699 63.4673C126.912 63.4673 127.112 63.5075 127.299 63.5879C127.486 63.6684 127.659 63.789 127.818 63.9499V62.189ZM126.882 64.289C126.606 64.289 126.376 64.3868 126.194 64.5825C126.011 64.776 125.92 65.0249 125.92 65.3292C125.92 65.6358 126.012 65.888 126.197 66.0858C126.384 66.2836 126.613 66.3825 126.885 66.3825C127.166 66.3825 127.398 66.2858 127.583 66.0923C127.768 65.8966 127.86 65.6412 127.86 65.326C127.86 65.0173 127.768 64.7673 127.583 64.576C127.398 64.3847 127.164 64.289 126.882 64.289ZM130.091 66.1771C130.232 66.1771 130.353 66.2271 130.453 66.3271C130.553 66.4249 130.603 66.5445 130.603 66.6858C130.603 66.8271 130.553 66.9477 130.453 67.0477C130.353 67.1478 130.232 67.1978 130.091 67.1978C129.949 67.1978 129.829 67.1478 129.729 67.0477C129.629 66.9477 129.579 66.8271 129.579 66.6858C129.579 66.5445 129.629 66.4249 129.729 66.3271C129.829 66.2271 129.949 66.1771 130.091 66.1771Z" fill="#7B8383"/>
  </g>
</svg>
