<svg width="127" height="27" viewBox="0 0 127 27" fill="none" xmlns="http://www.w3.org/2000/svg">
<path d="M6 6.66425V1.99609H10.6682V6.66425H6Z" fill="white" stroke="white" stroke-width="0.666879"/>
<path d="M6 22.3361V11.9995H10.6682V18.0014L6 22.3361Z" fill="white" stroke="white" stroke-width="0.666879"/>
<path d="M11.3359 26.0041V15.6675H16.0041V21.6694L11.3359 26.0041Z" fill="white" stroke="white" stroke-width="0.666879"/>
<path d="M10.668 11.3327V6.66455H15.3361V11.3327H10.668Z" fill="white" stroke="white" stroke-width="0.666879"/>
<path d="M20.9414 13.9653C20.9414 12.7814 21.2057 11.7239 21.7345 10.7928C22.2747 9.85027 23.0046 9.12037 23.9242 8.60311C24.8553 8.07436 25.8955 7.80998 27.045 7.80998C28.3899 7.80998 29.5681 8.15482 30.5796 8.8445C31.5911 9.53417 32.298 10.4882 32.7003 11.7066H29.9244C29.6485 11.1319 29.2577 10.7009 28.7519 10.4135C28.2577 10.1261 27.6829 9.98246 27.0277 9.98246C26.3266 9.98246 25.7001 10.1491 25.1484 10.4825C24.6081 10.8043 24.1828 11.2641 23.8725 11.8618C23.5736 12.4595 23.4242 13.1607 23.4242 13.9653C23.4242 14.7585 23.5736 15.4596 23.8725 16.0688C24.1828 16.6666 24.6081 17.1321 25.1484 17.4654C25.7001 17.7873 26.3266 17.9482 27.0277 17.9482C27.6829 17.9482 28.2577 17.8045 28.7519 17.5172C29.2577 17.2183 29.6485 16.7815 29.9244 16.2068H32.7003C32.298 17.4367 31.5911 18.3965 30.5796 19.0862C29.5795 19.7644 28.4013 20.1035 27.045 20.1035C25.8955 20.1035 24.8553 19.8448 23.9242 19.3276C23.0046 18.7988 22.2747 18.0689 21.7345 17.1378C21.2057 16.2068 20.9414 15.1493 20.9414 13.9653ZM37.5725 12.4308V17.0516C37.5725 17.3735 37.6472 17.6091 37.7967 17.7586C37.9576 17.8965 38.222 17.9655 38.5898 17.9655H39.7105V20H38.1932C36.1587 20 35.1414 19.0115 35.1414 17.0344V12.4308H34.0034V10.448H35.1414V8.08585H37.5725V10.448H39.7105V12.4308H37.5725ZM43.8605 11.9308C44.1709 11.425 44.5732 11.0285 45.0675 10.7411C45.5732 10.4537 46.148 10.3101 46.7917 10.3101V12.8446H46.1537C45.3951 12.8446 44.8203 13.0228 44.4295 13.3791C44.0502 13.7354 43.8605 14.3562 43.8605 15.2412V20H41.4467V10.448H43.8605V11.9308ZM50.8314 7.241V20H48.4175V7.241H50.8314ZM60.0441 13.8274C60.7223 13.9538 61.2798 14.2929 61.7165 14.8447C62.1533 15.3964 62.3717 16.0286 62.3717 16.7413C62.3717 17.385 62.2108 17.954 61.889 18.4482C61.5786 18.931 61.1246 19.3103 60.5269 19.5862C59.9291 19.8621 59.2222 20 58.4061 20H53.2163V7.96516H58.182C58.9981 7.96516 59.6992 8.09735 60.2855 8.36172C60.8832 8.6261 61.3315 8.99393 61.6303 9.4652C61.9407 9.93648 62.0959 10.471 62.0959 11.0687C62.0959 11.7699 61.9062 12.3561 61.5269 12.8274C61.1591 13.2987 60.6648 13.632 60.0441 13.8274ZM55.6302 12.9308H57.8371C58.4118 12.9308 58.8544 12.8044 59.1647 12.5515C59.4751 12.2871 59.6303 11.9136 59.6303 11.4308C59.6303 10.948 59.4751 10.5744 59.1647 10.3101C58.8544 10.0457 58.4118 9.91349 57.8371 9.91349H55.6302V12.9308ZM58.0613 18.0344C58.6475 18.0344 59.1015 17.8965 59.4234 17.6206C59.7567 17.3447 59.9234 16.9539 59.9234 16.4482C59.9234 15.9309 59.751 15.5286 59.4061 15.2412C59.0613 14.9424 58.5958 14.7929 58.0095 14.7929H55.6302V18.0344H58.0613ZM73.3131 10.448V20H70.882V18.7931C70.5716 19.2069 70.1635 19.5345 69.6578 19.7759C69.1635 20.0057 68.6233 20.1207 68.037 20.1207C67.2899 20.1207 66.629 19.9655 66.0542 19.6552C65.4795 19.3333 65.0255 18.8678 64.6921 18.2586C64.3703 17.6379 64.2093 16.9022 64.2093 16.0516V10.448H66.6232V15.7068C66.6232 16.4654 66.8129 17.0516 67.1922 17.4654C67.5715 17.8678 68.0888 18.0689 68.744 18.0689C69.4107 18.0689 69.9337 17.8678 70.313 17.4654C70.6923 17.0516 70.882 16.4654 70.882 15.7068V10.448H73.3131ZM79.4362 10.2928C80.1489 10.2928 80.7753 10.4365 81.3156 10.7239C81.8558 10.9997 82.2811 11.3618 82.5915 11.8101V10.448H85.0226V20.069C85.0226 20.9541 84.8444 21.7414 84.4881 22.4311C84.1318 23.1323 83.5973 23.684 82.8846 24.0863C82.1719 24.5001 81.3098 24.707 80.2983 24.707C78.942 24.707 77.827 24.3909 76.9534 23.7587C76.0913 23.1265 75.6028 22.2644 75.4878 21.1724H77.8845C78.0109 21.6092 78.281 21.9541 78.6948 22.207C79.1201 22.4713 79.6316 22.6035 80.2294 22.6035C80.9305 22.6035 81.4995 22.3909 81.9363 21.9656C82.3731 21.5518 82.5915 20.9196 82.5915 20.069V18.5862C82.2811 19.0345 81.8501 19.408 81.2983 19.7069C80.7581 20.0057 80.1374 20.1552 79.4362 20.1552C78.6316 20.1552 77.8959 19.9483 77.2293 19.5345C76.5626 19.1207 76.0338 18.5402 75.643 17.793C75.2637 17.0344 75.074 16.1666 75.074 15.1895C75.074 14.224 75.2637 13.3676 75.643 12.6205C76.0338 11.8733 76.5568 11.2986 77.212 10.8963C77.8787 10.494 78.6201 10.2928 79.4362 10.2928ZM82.5915 15.224C82.5915 14.6378 82.4765 14.1378 82.2467 13.724C82.0168 13.2987 81.7064 12.9768 81.3156 12.7584C80.9248 12.5285 80.5052 12.4136 80.0569 12.4136C79.6086 12.4136 79.1948 12.5228 78.8155 12.7412C78.4362 12.9596 78.1258 13.2814 77.8845 13.7067C77.6546 14.1205 77.5396 14.6148 77.5396 15.1895C77.5396 15.7642 77.6546 16.27 77.8845 16.7068C78.1258 17.1321 78.4362 17.4597 78.8155 17.6896C79.2063 17.9195 79.6201 18.0344 80.0569 18.0344C80.5052 18.0344 80.9248 17.9252 81.3156 17.7068C81.7064 17.4769 82.0168 17.1551 82.2467 16.7413C82.4765 16.316 82.5915 15.8102 82.5915 15.224ZM91.0354 20.1552C90.2538 20.1552 89.5526 20.0172 88.9319 19.7414C88.3112 19.454 87.817 19.0689 87.4491 18.5862C87.0928 18.1034 86.8974 17.5689 86.8629 16.9827H89.294C89.34 17.3505 89.5182 17.6551 89.8285 17.8965C90.1504 18.1379 90.5469 18.2586 91.0182 18.2586C91.478 18.2586 91.8343 18.1666 92.0872 17.9827C92.3516 17.7988 92.4838 17.5631 92.4838 17.2758C92.4838 16.9654 92.3228 16.7355 92.001 16.5861C91.6906 16.4252 91.1906 16.2528 90.5009 16.0688C89.7883 15.8964 89.2021 15.7183 88.7423 15.5343C88.294 15.3504 87.9032 15.0688 87.5698 14.6895C87.248 14.3102 87.087 13.7987 87.087 13.155C87.087 12.6262 87.2365 12.1434 87.5353 11.7066C87.8457 11.2699 88.2825 10.925 88.8457 10.6721C89.4204 10.4193 90.0929 10.2928 90.863 10.2928C92.001 10.2928 92.9091 10.5802 93.5872 11.1549C94.2654 11.7181 94.639 12.4825 94.708 13.4481H92.3975C92.3631 13.0688 92.2021 12.7699 91.9148 12.5515C91.6389 12.3216 91.2653 12.2067 90.7941 12.2067C90.3573 12.2067 90.0182 12.2871 89.7768 12.4481C89.5469 12.609 89.4319 12.8331 89.4319 13.1205C89.4319 13.4423 89.5929 13.6895 89.9147 13.8619C90.2366 14.0228 90.7366 14.1895 91.4148 14.3619C92.1044 14.5343 92.6734 14.7125 93.1217 14.8964C93.57 15.0803 93.9551 15.3677 94.2769 15.7585C94.6103 16.1378 94.7827 16.6436 94.7942 17.2758C94.7942 17.8275 94.639 18.3218 94.3286 18.7586C94.0298 19.1954 93.593 19.5402 93.0183 19.7931C92.455 20.0345 91.7941 20.1552 91.0354 20.1552Z" fill="white"/>
</svg>
